<svg width="17.000000" height="18.000000" viewBox="0 0 17 18" fill="none" xmlns="http://www.w3.org/2000/svg" xmlns:xlink="http://www.w3.org/1999/xlink">
	<desc>
			Created with Pixso.
	</desc>
	<defs/>
	<mask id="mask_2_3136" fill="white">
		<path id="Shape" d="M13.25 2.50012C13.25 1.11938 12.1307 0.00012207 10.75 0.00012207L3 0.00012207C1.61926 0.00012207 0.5 1.11938 0.5 2.50012L0.5 10.2501C0.5 11.6309 1.61926 12.7501 3 12.7501L10.75 12.7501C12.1307 12.7501 13.25 11.6309 13.25 10.2501L13.25 2.50012ZM15.2504 3.70837C16.1332 4.09424 16.75 4.9751 16.75 6.00012L16.75 11.2501C16.75 14.0116 14.5115 16.2501 11.75 16.2501L6.5 16.2501C5.47498 16.2501 4.59412 15.6333 4.20825 14.7505L11.25 14.7501C13.3922 14.7501 15.1411 13.0662 15.2451 10.9497L15.25 10.7501L15.2504 3.70837Z" clip-rule="evenodd" fill="" fill-opacity="1.000000" fill-rule="evenodd"/>
	</mask>
	<path id="Shape" d="M13.25 2.50012C13.25 1.11938 12.1307 0.00012207 10.75 0.00012207L3 0.00012207C1.61926 0.00012207 0.5 1.11938 0.5 2.50012L0.5 10.2501C0.5 11.6309 1.61926 12.7501 3 12.7501L10.75 12.7501C12.1307 12.7501 13.25 11.6309 13.25 10.2501L13.25 2.50012ZM15.2504 3.70837C16.1332 4.09424 16.75 4.9751 16.75 6.00012L16.75 11.2501C16.75 14.0116 14.5115 16.2501 11.75 16.2501L6.5 16.2501C5.47498 16.2501 4.59412 15.6333 4.20825 14.7505L11.25 14.7501C13.3922 14.7501 15.1411 13.0662 15.2451 10.9497L15.25 10.7501L15.2504 3.70837Z" clip-rule="evenodd" fill="#FFFFFF" fill-opacity="1.000000" fill-rule="evenodd" mask="url(#mask_2_3136)"/>
	<path id="Shape" d="M13.45 10.2501L13.45 2.50012C13.45 2.13403 13.3793 1.78369 13.2378 1.4491C13.1011 1.1261 12.9082 0.839966 12.6592 0.590942C12.4102 0.341919 12.124 0.149048 11.801 0.0123291C11.4664 -0.12915 11.1161 -0.199829 10.75 -0.199829L3 -0.199829C2.63391 -0.199829 2.28357 -0.12915 1.94897 0.0123291C1.62598 0.149048 1.33984 0.341919 1.09082 0.590942C0.841797 0.839966 0.648926 1.1261 0.512207 1.4491C0.370728 1.78369 0.300049 2.13403 0.300049 2.50012L0.300049 10.2501C0.300049 10.6162 0.370728 10.9666 0.512207 11.3011C0.648926 11.6241 0.841797 11.9103 1.09082 12.1593C1.33984 12.4083 1.62598 12.6012 1.94897 12.7379C2.28357 12.8794 2.63391 12.9501 3 12.9501L10.75 12.9501C11.1161 12.9501 11.4664 12.8794 11.801 12.7379C12.124 12.6012 12.4102 12.4083 12.6592 12.1593C12.9082 11.9103 13.1011 11.6241 13.2378 11.3011C13.3793 10.9666 13.45 10.6162 13.45 10.2501ZM10.75 0.00012207C12.1307 0.00012207 13.25 1.11938 13.25 2.50012L13.25 10.2501C13.25 11.6309 12.1307 12.7501 10.75 12.7501L3 12.7501C1.61926 12.7501 0.5 11.6309 0.5 10.2501L0.5 2.50012C0.5 1.11938 1.61926 0.00012207 3 0.00012207L10.75 0.00012207ZM15.976 3.92064Q15.6878 3.68125 15.3304 3.52502L15.0504 3.40259L15.05 10.7452L15.0453 10.9399L15.0453 10.94C15.021 11.4346 14.9049 11.9053 14.6969 12.3521C14.4952 12.7853 14.2208 13.1676 13.8738 13.4989C13.526 13.8311 13.1306 14.0876 12.6876 14.2688C12.2291 14.4563 11.7499 14.5502 11.25 14.5502L3.90247 14.5505L4.0249 14.8306Q4.18113 15.1879 4.42052 15.4761Q4.66765 15.7737 5.00342 15.9977C5.45557 16.2993 5.95435 16.4501 6.5 16.4501L11.75 16.4501C12.4552 16.4501 13.1299 16.3138 13.7742 16.0414C14.3962 15.7782 14.9473 15.4069 15.427 14.9271C15.9067 14.4474 16.2781 13.8964 16.5413 13.2743C16.8137 12.63 16.95 11.9553 16.95 11.2501L16.95 6.00012C16.95 5.45447 16.7992 4.95569 16.4976 4.50354Q16.2736 4.16777 15.976 3.92064ZM15.2451 10.9497C15.1411 13.0662 13.3922 14.7501 11.25 14.7501L4.42819 14.7505L4.20825 14.7505C4.23812 14.8188 4.27096 14.8856 4.30659 14.9506C4.73135 15.7251 5.55432 16.2501 6.5 16.2501L11.75 16.2501C14.5115 16.2501 16.75 14.0116 16.75 11.2501L16.75 6.00012C16.75 5.05444 16.225 4.23147 15.4504 3.80672C15.3854 3.77108 15.3187 3.73824 15.2504 3.70837L15.2504 3.92832L15.25 10.7501L15.2451 10.9497Z" clip-rule="evenodd" fill="#000000" fill-opacity="0.200000" fill-rule="evenodd"/>
</svg>
