<svg width="20.000000" height="20.000000" viewBox="0 0 20 20" fill="none" xmlns="http://www.w3.org/2000/svg" xmlns:xlink="http://www.w3.org/1999/xlink">
	<desc>
			Created with Pixso.
	</desc>
	<defs/>
	<path id="Shape" d="M6.25 -0.999878C6.66418 -0.999878 7 -0.664062 7 -0.249878C7 0.164307 6.66418 0.500122 6.25 0.500122L4 0.500122C2.61926 0.500122 1.5 1.61938 1.5 3.00012L1.5 5.25012C1.5 5.66431 1.16418 6.00012 0.75 6.00012C0.335815 6.00012 0 5.66431 0 5.25012L0 3.00012C0 0.791016 1.79089 -0.999878 4 -0.999878L6.25 -0.999878ZM20 3.00012C20 0.791016 18.2091 -0.999878 16 -0.999878L13.75 -0.999878C13.3358 -0.999878 13 -0.664062 13 -0.249878C13 0.164307 13.3358 0.500122 13.75 0.500122L16 0.500122C17.3807 0.500122 18.5 1.61938 18.5 3.00012L18.5 5.25012C18.5 5.66431 18.8358 6.00012 19.25 6.00012C19.6642 6.00012 20 5.66431 20 5.25012L20 3.00012ZM12 4.50012C13.3807 4.50012 14.5 5.61938 14.5 7.00012L14.5 11.0001C14.5 12.3809 13.3807 13.5001 12 13.5001L8 13.5001C6.61926 13.5001 5.5 12.3809 5.5 11.0001L5.5 7.00012C5.5 5.61938 6.61926 4.50012 8 4.50012L12 4.50012ZM8 6.00012L12 6.00012C12.5522 6.00012 13 6.44788 13 7.00012L13 11.0001C13 11.5524 12.5522 12.0001 12 12.0001L8 12.0001C7.44775 12.0001 7 11.5524 7 11.0001L7 7.00012C7 6.44788 7.44775 6.00012 8 6.00012ZM0.75 12.0001C1.16418 12.0001 1.5 12.3359 1.5 12.7501L1.5 15.0001C1.5 16.3809 2.61926 17.5001 4 17.5001L6.25 17.5001C6.66418 17.5001 7 17.8359 7 18.2501C7 18.6643 6.66418 19.0001 6.25 19.0001L4 19.0001C1.79089 19.0001 0 17.2092 0 15.0001L0 12.7501C0 12.3359 0.335815 12.0001 0.75 12.0001ZM20 12.7501C20 12.3359 19.6642 12.0001 19.25 12.0001C18.8358 12.0001 18.5 12.3359 18.5 12.7501L18.5 15.0001C18.5 16.3809 17.3807 17.5001 16 17.5001L13.75 17.5001C13.3358 17.5001 13 17.8359 13 18.2501C13 18.6643 13.3358 19.0001 13.75 19.0001L16 19.0001C18.2091 19.0001 20 17.2092 20 15.0001L20 12.7501Z" clip-rule="evenodd" fill="#262626" fill-opacity="1.000000" fill-rule="evenodd"/>
</svg>
