<svg width="14.000000" height="14.000000" viewBox="0 0 14 14" fill="none" xmlns="http://www.w3.org/2000/svg" xmlns:xlink="http://www.w3.org/1999/xlink">
	<desc>
			Created with Pixso.
	</desc>
	<defs/>
	<path id="Shape" d="M5 -0.749878C8.17566 -0.749878 10.75 1.82446 10.75 5.00012C10.75 6.31738 10.307 7.53113 9.56201 8.50073L12.7123 11.6517C13.0052 11.9447 13.0052 12.4196 12.7123 12.7124C12.446 12.9788 12.0294 13.0029 11.7357 12.785L11.6516 12.7124L8.50061 9.56213C7.53101 10.3071 6.31726 10.7501 5 10.7501C1.82434 10.7501 -0.75 8.17578 -0.75 5.00012C-0.75 1.82446 1.82434 -0.749878 5 -0.749878ZM0.75 5.00012C0.75 2.65295 2.65283 0.750122 5 0.750122C7.34717 0.750122 9.25 2.65295 9.25 5.00012C9.25 7.34729 7.34717 9.25012 5 9.25012C2.65283 9.25012 0.75 7.34729 0.75 5.00012Z" clip-rule="evenodd" fill="#3C3C43" fill-opacity="0.600000" fill-rule="evenodd"/>
</svg>
