<svg width="75.000000" height="50.000000" viewBox="0 0 75 50" fill="none" xmlns="http://www.w3.org/2000/svg" xmlns:xlink="http://www.w3.org/1999/xlink">
	<desc>
			Created with Pixso.
	</desc>
	<defs/>
	<rect id="Rectangle" y="-0.999878" width="75.000000" height="50.000000" fill="#FAFAFA" fill-opacity="0"/>
	<path id="Shape" d="M37.7 9.9046L47.7 19.7061C47.8918 19.8942 48 20.1516 48 20.4202L48 32.5001C48 32.7456 47.8231 32.9497 47.5898 32.9921L47.5 33.0001L39.5 32.9998C39.2239 32.9998 39 32.7759 39 32.4998L39 27.0001L38.9955 26.6503C38.9558 25.2156 38.6344 24.0897 37.1763 24.0052L37 24.0001C35.4023 24.0001 35.0963 25.249 35.0051 26.8239L35 27.0001L35 32.4998C35 32.7759 34.7761 32.9998 34.5 32.9998L26.5 33.0001C26.2545 33.0001 26.0504 32.8232 26.0081 32.59L26 32.5001L26 20.4202C26 20.1516 26.1082 19.8942 26.3 19.7061L36.3 9.9046C36.6888 9.5235 37.3112 9.5235 37.7 9.9046ZM27.5 20.6302L37 11.3189L46.5 20.6302L46.5 31.5001L40.5 31.4998L40.5 27.0001L40.4954 26.6308C40.4283 24.2007 39.5424 22.6398 37.2631 22.5077L37.0433 22.5007C34.5514 22.5001 33.6619 24.0747 33.5076 26.7371L33.5006 26.9568L33.5001 31.4998L27.5 31.5001L27.5 20.6302Z" clip-rule="evenodd" fill="#262626" fill-opacity="1.000000" fill-rule="evenodd"/>
</svg>
