<svg width="64.000000" height="83.000000" viewBox="0 0 64 83" fill="none" xmlns="http://www.w3.org/2000/svg" xmlns:xlink="http://www.w3.org/1999/xlink">
	<desc>
			Created with Pixso.
	</desc>
	<defs>
		<clipPath id="clip2_3990">
			<rect id="Add New Story" width="64.000000" height="83.000000" transform="translate(0.000000 -0.999878)" fill="white" fill-opacity="0"/>
		</clipPath>
	</defs>
	<rect id="Add New Story" width="64.000000" height="83.000000" transform="translate(0.000000 -0.999878)" fill="#FFFFFF" fill-opacity="0"/>
	<g clip-path="url(#clip2_3990)">
		<path id="Oval" d="M64 31C64 48.67 49.67 63 32 63C14.32 63 0 48.67 0 31C0 13.32 14.32 -1 32 -1C49.67 -1 64 13.32 64 31ZM60.73 19.09C62.24 22.75 63 26.71 63 31C63 35.28 62.24 39.24 60.73 42.9C59.21 46.55 56.94 49.89 53.92 52.92C50.89 55.94 47.55 58.21 43.9 59.73C40.24 61.24 36.28 62 32 62C27.71 62 23.75 61.24 20.09 59.73C16.44 58.21 13.1 55.94 10.07 52.92C7.05 49.89 4.78 46.55 3.26 42.9C1.75 39.24 1 35.28 1 31C1 26.72 1.75 22.75 3.26 19.09C4.78 15.44 7.05 12.1 10.07 9.07C13.1 6.05 16.44 3.78 20.09 2.27C23.75 0.75 27.71 0 32 0C36.28 0 40.24 0.75 43.9 2.26C47.55 3.78 50.89 6.05 53.92 9.07C56.94 12.1 59.21 15.44 60.73 19.09Z" fill="#C7C7CC" fill-opacity="1.000000" fill-rule="evenodd"/>
		<path id="New" d="M26.35 69.51L27.39 69.51L27.39 78L26.39 78L21.79 71.39L21.71 71.39L21.71 78L20.66 78L20.66 69.51L21.67 69.51L26.27 76.13L26.35 76.13L26.35 69.51ZM34.36 76.51C34.05 77.47 33.11 78.12 31.8 78.12C29.96 78.12 28.83 76.82 28.83 74.87C28.83 72.91 29.97 71.55 31.71 71.55C33.04 71.55 34.45 72.37 34.45 74.73L34.45 75.15L29.83 75.15C29.88 76.5 30.66 77.23 31.8 77.23C32.56 77.23 33.04 76.91 33.28 76.51L34.36 76.51ZM38.19 78L37.18 78L35.25 71.63L36.32 71.63L37.67 76.48L37.73 76.48L39.08 71.63L40.16 71.63L41.48 76.46L41.55 76.46L42.91 71.63L43.97 71.63L42.03 78L41.04 78L39.65 73.14L39.56 73.14L38.19 78ZM31.71 72.44C30.61 72.44 29.9 73.31 29.84 74.29L33.43 74.29C33.43 73.23 32.75 72.44 31.71 72.44Z" fill="#262626" fill-opacity="1.000000" fill-rule="evenodd"/>
		<path id="Shape" d="M33 22L33 30L41 30L41 32L33 32L33 40L31 40L31 32L23 32L23 30L31 30L31 22L33 22Z" fill="#262626" fill-opacity="1.000000" fill-rule="nonzero"/>
	</g>
</svg>
